<svg xmlns="http://www.w3.org/2000/svg" viewBox="40 50 80 110">
    <path
            d="M108.5,122.74c0,12.76-8.72,25.15-27.07,25.15h-.58l0,11.17-13.35.22-.28-11.52c-9.57-.13-19.31-.35-23.61-.45l-.34-13.9,7.28.05L50,77.83l-8.12-.14L41.5,64c4.64-.21,14.49-.64,23.62-1l-.29-11.75L81,50.92l0,11.73c14.58.16,23.08,9.74,23.08,21.32,0,8-3,14.62-9.87,17.46C102.69,104,108.5,112.34,108.5,122.74ZM76.63,77.37c-2.82,0-10.46,0-10.46,0l.06,17.88S75,95.11,78,95C92.24,94.54,92.53,77.37,76.63,77.37Zm2.2,32.68c-2.9,0-12.54-.42-12.54-.42l.09,23.54s10.21.18,13.68.18C98,133.35,97.36,110.4,78.83,110.05Z" fill="white" />
</svg>
