<svg xmlns="http://www.w3.org/2000/svg" viewBox="8 55 135 100">
    <path
            d="M117.2,115.33a37.56,37.56,0,0,1-10.75,22.49c-22.25,22.25-51.2,11.44-63.76-8.75l14.65-7.3c7.81,11.77,24.89,17.85,38,4.73,4.88-4.88,8.33-10,9.14-15.26L84.78,122.87l-8.14-14.1L117.3,91.41l22.93,37-14,8.13ZM54.36,85.08C50,89.45,46.76,94,45.54,98.68l19.68-11.6,8.14,14.1L32.7,118.54l-22.93-37,14-8.13,9,21.14a37.16,37.16,0,0,1,10.5-20.79c21.65-21.65,49.65-12,62.71,7.14L92.52,90C84.78,78.12,67.57,71.87,54.36,85.08Z" fill="white" />
</svg>
